<svg width="168" height="168" viewBox="0 0 168 168" fill="none" xmlns="http://www.w3.org/2000/svg">
<path fill-rule="evenodd" clip-rule="evenodd" d="M168 84C168 130.392 130.392 168 84 168C37.6081 168 0 130.392 0 84C0 37.6081 37.6081 0 84 0C130.392 0 168 37.6081 168 84ZM56.6261 35.9999C49.1125 36.0014 43 42.1149 43 49.628V118.603C43 126.116 49.1125 132.23 56.6266 132.231H120.947C122.633 132.231 124 130.864 124 129.178V118.603V108.028V60.2028V39.0533C124 37.3669 122.633 35.9999 120.947 35.9999H56.6261ZM56.6266 42.1066H117.893V60.2028V104.974H56.6261C53.8478 104.975 51.263 105.813 49.1066 107.245V49.628C49.1066 45.4814 52.4804 42.1071 56.6266 42.1066ZM117.893 126.124H56.6271C52.4804 126.123 49.1066 122.749 49.1066 118.602C49.1066 114.456 52.48 111.081 56.6266 111.081H117.893V115.549H69.817C68.1306 115.549 66.7636 116.916 66.7636 118.602C66.7636 120.289 68.1306 121.656 69.817 121.656H117.893V126.124ZM71.2899 90.4048V78.8441C67.2561 77.2252 64.4592 73.2695 64.4592 68.7472C64.4592 62.917 69.0695 58.1431 74.8361 57.8803C76.8684 55.1904 80.0351 53.5856 83.5002 53.5856C86.9639 53.5856 90.1311 55.1904 92.1638 57.8803C97.93 58.1431 102.54 62.9166 102.54 68.7472C102.54 73.269 99.7439 77.2252 95.7096 78.8446V90.4048C95.7096 92.0912 94.3427 93.4581 92.6563 93.4581H74.3432C72.6568 93.4581 71.2899 92.0912 71.2899 90.4048ZM76.0379 64.027C75.8039 63.9928 75.5689 63.9757 75.3378 63.9757C72.7066 63.9757 70.5659 66.1159 70.5659 68.7472C70.5659 71.1454 72.3568 73.1791 74.7321 73.4786C76.331 73.6804 77.4981 75.0908 77.397 76.6995C77.397 76.7009 77.3969 76.7025 77.3968 76.7042C77.3967 76.7061 77.3965 76.708 77.3965 76.7098V87.3514H89.6044V76.508C89.6044 74.9706 90.7481 73.6726 92.2733 73.4791C94.6461 73.1782 96.4356 71.1439 96.4356 68.7477C96.4356 66.1164 94.2948 63.9757 91.6636 63.9757C91.4325 63.9757 91.198 63.9928 90.9655 64.027C89.6591 64.22 88.3699 63.5463 87.7837 62.3582C86.9713 60.7138 85.3303 59.6922 83.5012 59.6922C81.6717 59.6922 80.0307 60.7138 79.2192 62.3572C78.6335 63.5453 77.3501 64.2209 76.0379 64.027Z" fill="#E12653"/>
</svg>
