<svg width="602" height="625" viewBox="0 0 602 625" fill="none" xmlns="http://www.w3.org/2000/svg">
<path fill-rule="evenodd" clip-rule="evenodd" d="M234.09 0C210.81 0 190.715 13.6373 181.358 33.359C158.574 33.5247 140.816 34.5707 124.964 40.766C106.024 48.1683 89.5506 60.7517 77.4266 77.0767C65.1956 93.5463 59.454 114.656 51.5516 143.711L50.0053 149.39L32.9143 248.158C26.73 252.424 21.3586 257.476 16.6873 263.46C-13.3404 301.917 0.958647 359.113 29.557 473.507C47.746 546.263 56.8406 582.64 83.9666 603.82C111.093 625 148.59 625 223.586 625H377.942C452.938 625 490.435 625 517.562 603.82C544.685 582.64 553.782 546.263 571.972 473.507C600.568 359.113 614.868 301.917 584.838 263.46C580.165 257.471 574.788 252.416 568.598 248.147L551.508 149.39L549.962 143.711C542.058 114.656 536.318 93.5463 524.088 77.0767C511.965 60.7517 495.488 48.1683 476.552 40.766C460.698 34.5707 442.942 33.5247 420.155 33.359C410.798 13.6373 390.705 0 367.425 0H234.09ZM514.688 229.857L502.645 160.255C493.185 125.598 489.752 114.707 483.945 106.888C477.418 98.097 468.548 91.3213 458.348 87.3357C451.022 84.472 442.168 83.6293 420.108 83.4063C410.732 103.075 390.665 116.667 367.425 116.667H234.09C210.849 116.667 190.782 103.075 181.405 83.4063C159.344 83.6293 150.492 84.472 143.165 87.3357C132.967 91.3213 124.096 98.097 117.568 106.887C111.761 114.707 108.328 125.598 98.8683 160.255L86.8236 229.859C120.096 225 164.418 225 223.586 225H377.942C437.102 225 481.418 225 514.688 229.857ZM167.432 333.333C181.239 333.333 192.432 344.527 192.432 358.333V491.667C192.432 505.473 181.239 516.667 167.432 516.667C153.625 516.667 142.432 505.473 142.432 491.667V358.333C142.432 344.527 153.625 333.333 167.432 333.333ZM459.098 358.333C459.098 344.527 447.905 333.333 434.098 333.333C420.292 333.333 409.098 344.527 409.098 358.333V491.667C409.098 505.473 420.292 516.667 434.098 516.667C447.905 516.667 459.098 505.473 459.098 491.667V358.333ZM300.765 333.333C314.572 333.333 325.765 344.527 325.765 358.333V491.667C325.765 505.473 314.572 516.667 300.765 516.667C286.958 516.667 275.765 505.473 275.765 491.667V358.333C275.765 344.527 286.958 333.333 300.765 333.333Z" fill="#E12653"/>
</svg>
