<svg width="168" height="168" viewBox="0 0 168 168" fill="none" xmlns="http://www.w3.org/2000/svg">
<path fill-rule="evenodd" clip-rule="evenodd" d="M168 84C168 130.392 130.392 168 84 168C37.6081 168 0 130.392 0 84C0 37.6081 37.6081 0 84 0C130.392 0 168 37.6081 168 84ZM83.3362 65.785C89.0758 65.785 93.7287 61.1321 93.7287 55.3925C93.7287 49.6529 89.0758 45 83.3362 45C77.5966 45 72.9437 49.6529 72.9437 55.3925C72.9437 61.1321 77.5966 65.785 83.3362 65.785ZM110.03 81.9638L119.716 83.9843C123.974 84.8742 126.736 89.0947 125.85 93.3647L123.413 104.987C122.531 109.246 118.307 112.003 114.052 111.117L110.935 110.464C106.115 117.48 95.6501 122.365 83.5006 122.365C75.5603 122.365 68.078 120.318 62.414 116.605C59.6946 114.826 57.571 112.744 56.0357 110.475L52.9688 111.117C48.7101 112.007 44.4859 109.246 43.6036 104.987L41.1706 93.3647C40.2807 89.0947 43.0421 84.8742 47.2969 83.9843L56.9906 81.9638C60.2943 81.2726 63.5562 82.7964 65.2786 85.4967C66.963 84.6336 68.7429 83.8926 70.6373 83.2891V77.499C70.6373 73.1412 74.1893 69.5776 78.5548 69.5776H88.4584C92.8008 69.5776 96.3683 73.1412 96.3644 77.499V83.2587C98.2779 83.8736 100.077 84.6146 101.75 85.4739C103.472 82.785 106.73 81.2726 110.03 81.9638ZM64.587 113.286C69.6018 116.59 76.324 118.397 83.4967 118.397C93.5531 118.397 102.303 114.822 106.726 109.586L104.354 109.089C100.092 108.203 97.3343 103.983 98.2166 99.7201L100.428 89.1518C99.1676 88.4797 97.808 87.8876 96.3605 87.372V89.3772C96.3605 93.7238 92.8008 97.291 88.4543 97.291H78.5507C74.1928 97.291 70.6332 93.7275 70.6332 89.3772V87.4713C69.2124 87.9831 67.8756 88.5828 66.6038 89.2664L68.7847 99.7162C69.6746 103.979 66.9131 108.199 62.6507 109.085L60.3018 109.578C61.4437 110.915 62.8683 112.164 64.587 113.286ZM117.608 79.4469C123.347 79.4469 128 74.794 128 69.0544C128 63.3148 123.347 58.6619 117.608 58.6619C111.868 58.6619 107.215 63.3148 107.215 69.0544C107.215 74.794 111.868 79.4469 117.608 79.4469ZM59.576 66.9232C60.7371 72.5415 57.1469 78.0528 51.5248 79.2292C45.9027 80.4019 40.3952 76.8001 39.2225 71.178C38.0461 65.5596 41.6516 60.0521 47.2661 58.8796C52.8921 57.7032 58.392 61.3087 59.576 66.9232Z" fill="#E12653"/>
</svg>
