<svg width="168" height="168" viewBox="0 0 168 168" fill="none" xmlns="http://www.w3.org/2000/svg">
<path fill-rule="evenodd" clip-rule="evenodd" d="M84 168C130.392 168 168 130.392 168 84C168 37.6081 130.392 0 84 0C37.6081 0 0 37.6081 0 84C0 130.392 37.6081 168 84 168ZM103.86 47.2573C104.262 47.2374 104.663 47.227 105.062 47.227C118.261 47.227 129 57.884 129 70.983C129 81.9403 121.421 91.3771 110.954 94.0067V127.758C110.954 129.549 109.492 131 107.688 131H59.3125C57.508 131 56.0458 129.549 56.0458 127.758V94.005C45.5773 91.3762 38 81.942 38 70.983C38 57.884 48.7385 47.227 61.9384 47.227C62.3374 47.227 62.7385 47.237 63.1405 47.2573C67.4852 40.26 75.0938 36 83.5 36C91.9057 36 99.5144 40.26 103.86 47.2573ZM62.5791 118.406V124.516H104.421L104.422 118.406H95.4328H83.5004H71.5685H62.5791ZM104.421 91.3261C104.421 89.6936 105.644 88.3161 107.276 88.1103C115.936 87.0198 122.467 79.6569 122.467 70.983C122.467 61.4589 114.659 53.7104 105.062 53.7104C104.221 53.7104 103.366 53.7731 102.519 53.8967C101.113 54.0998 99.7422 53.3849 99.1154 52.1241C96.1563 46.1776 90.1727 42.4834 83.5 42.4834C76.8269 42.4834 70.8433 46.1772 67.8863 52.1237C67.2596 53.3849 65.8863 54.1007 64.4833 53.8967C63.6344 53.7727 62.779 53.7104 61.9388 53.7104C52.3419 53.7104 44.5337 61.4589 44.5337 70.983C44.5337 79.6621 51.0696 87.0254 59.7367 88.1103C61.448 88.3247 62.6963 89.8219 62.5883 91.5301C62.5856 91.5668 62.5826 91.6036 62.5791 91.6403V113.003H68.8463V92.784C68.8463 91.2919 70.0649 90.0826 71.5685 90.0826C73.072 90.0826 74.2907 91.2919 74.2907 92.784V113.003H80.7774V92.784C80.7774 91.2919 81.996 90.0826 83.4996 90.0826C85.0031 90.0826 86.2218 91.2919 86.2218 92.784V113.003H92.7098V92.784C92.7098 91.2919 93.9284 90.0826 95.432 90.0826C96.9355 90.0826 98.1542 91.2919 98.1542 92.784V113.003H104.421V91.3261Z" fill="#E12653"/>
</svg>
