<svg width="168" height="168" viewBox="0 0 168 168" fill="none" xmlns="http://www.w3.org/2000/svg">
<path fill-rule="evenodd" clip-rule="evenodd" d="M168 84C168 130.392 130.392 168 84 168C37.6081 168 0 130.392 0 84C0 37.6081 37.6081 0 84 0C130.392 0 168 37.6081 168 84ZM51.3851 131.758H103.568C105.438 131.758 106.953 130.243 106.953 128.373V119.248H116.615C118.485 119.248 120 117.733 120 115.863V74.7354C120 72.8655 118.485 71.3503 116.615 71.3503H106.953V62.2254C106.953 51.7754 98.4514 43.2734 88.0014 43.2734C87.4625 43.2734 86.9191 43.2978 86.3743 43.3466C83.2483 38.7604 78.1057 36 72.4345 36C64.3703 36 57.4755 41.7768 55.8769 49.4984C51.089 51.8675 48 56.7425 48 62.2254V115.863V128.373C48 130.243 49.5152 131.758 51.3851 131.758ZM100.183 74.7354V112.478H54.7702V65.6105H100.183V74.7354ZM100.183 124.988H54.7702V119.248H100.183V124.988ZM113.23 78.1205V112.478H106.953V78.1205H113.23ZM59.9692 55.1285C61.2899 54.7123 62.2233 53.5339 62.3271 52.1532C62.7211 46.8919 67.1605 42.7702 72.4345 42.7702C76.3513 42.7702 79.8492 44.9718 81.563 48.5154C82.2481 49.9303 83.817 50.689 85.3507 50.3447C86.243 50.1452 87.1348 50.0436 88.0019 50.0436C93.5448 50.0436 98.2352 53.765 99.7057 58.8403H55.5776C56.4591 57.1045 58.0117 55.7459 59.9692 55.1285ZM80.297 103.887C80.297 105.445 79.0341 106.708 77.476 106.708C75.9175 106.708 74.6551 105.445 74.6551 103.887V74.2014C74.6551 72.6434 75.918 71.3805 77.476 71.3805C79.0341 71.3805 80.297 72.6434 80.297 74.2014V103.887ZM90.5217 106.708C92.0798 106.708 93.3426 105.445 93.3426 103.887V74.2014C93.3426 72.6434 92.0798 71.3805 90.5217 71.3805C88.9637 71.3805 87.7008 72.6434 87.7008 74.2014V103.887C87.7008 105.445 88.9637 106.708 90.5217 106.708ZM67.2521 103.887C67.2521 105.445 65.9893 106.708 64.4312 106.708C62.8732 106.708 61.6103 105.445 61.6103 103.887V74.2014C61.6103 72.6434 62.8732 71.3805 64.4312 71.3805C65.9893 71.3805 67.2521 72.6434 67.2521 74.2014V103.887Z" fill="#E12653"/>
</svg>
